<svg xmlns="http://www.w3.org/2000/svg" width="77" height="51" viewBox="0 0 77 51">
    <g fill="#fff" fill-rule="nonzero" opacity=".85">
        <path d="M21.307 35.71c-4.21 0-7.626 3.421-7.626 7.636s3.416 7.636 7.626 7.636c4.21 0 7.625-3.42 7.625-7.636 0-4.215-3.416-7.635-7.625-7.635zm0 12.018a4.376 4.376 0 0 1-4.376-4.382 4.376 4.376 0 1 1 8.752 0c0 2.404-1.958 4.382-4.376 4.382zM21.14 11.992h-.461V9.459A2.184 2.184 0 0 0 18.5 7.277c-1.2 0-2.178.98-2.178 2.182v2.533h-.462v.628h5.28v-.628z"/>
        <path d="M76.623 4.862A4.786 4.786 0 0 0 71.841.074a4.755 4.755 0 0 0-4.727 4.178L44.663 16.595v-1.756a5.204 5.204 0 0 0-5.207-5.214 5.204 5.204 0 0 0-5.206 5.214v5.971h2.049-1.182v12.128h-1.864v4.899h-2.271V14.062c0-.795-.647-1.442-1.44-1.442H6.886c-.646 0-1.219.444-1.385 1.072L1.57 28.704v3.975a2.707 2.707 0 0 0-1.403 1.997l-.037.37v7.82h12.814c.24-4.4 3.896-7.913 8.364-7.913 4.468 0 8.124 3.513 8.364 7.913H55.538c-.019.166-.019.314-.019.48 0 4.215 3.416 7.636 7.626 7.636 4.21 0 7.625-3.42 7.625-7.636 0-.166 0-.314-.018-.48H75.645v-5.029h-4.376c-1.717-2.866-4.708-4.77-8.106-4.77-2.51 0-4.782 1.036-6.499 2.718a5.056 5.056 0 0 0-1.052-2.57l3.73-5.12-1.182-1.036 9.73-16.54 1.939-1.312c.609.277 1.292.443 2.012.443.092 0 .203 0 .295-.018v10.912l.61 1.653a4639.81 4639.81 0 0 1 0-7.925c.002-1.051.045-2.629.129-4.733a4.796 4.796 0 0 0 3.748-4.677zM3.453 26.264H2.216l2.861-10.908h1.164L3.453 26.264zm9.86 11.714c.029-.03.029-.06.059-.089.03-.03.03-.06.06-.089a.62.62 0 0 0-.12.178zm4.541-12.786H7.274l2.29-9.115a.949.949 0 0 1 .923-.72h11.448v6.84a4.645 4.645 0 0 0-4.08 2.995zm11.023-2.921H25.35v-6.896h3.527v6.896zm34.286 25.457a4.376 4.376 0 0 1-4.376-4.382 4.376 4.376 0 1 1 8.752 0 4.376 4.376 0 0 1-4.376 4.382zm0-13.237c2.622 0 4.967 1.312 6.48 3.364h-1.2a7.554 7.554 0 0 0-5.298-2.144 7.62 7.62 0 0 0-5.3 2.144h-1.162v-.037c1.532-2.033 3.858-3.327 6.48-3.327zm-5.502-7.857l-1.181-1.036-6.02 5.787c-2.27.518-3.988 2.551-3.988 4.991v1.48h-.812v-4.9h-1.865V28.89l22.009-16.965-8.143 14.71z"/>
        <path d="M72.047 26.88h-.443a2.7 2.7 0 0 1-2.695-2.698 2.698 2.698 0 0 1 2.548-2.7v-2.514c0-.333.258-.592.59-.592.333 0 .591.26.591.592v3.716h-1.034c-.83 0-1.514.684-1.514 1.516s.683 1.516 1.514 1.516h.443a.994.994 0 0 0 .997-.998c0-.333.259-.592.591-.592.333 0 .591.259.591.592a2.18 2.18 0 0 1-2.179 2.163z"/>
    </g>
</svg>
