<svg xmlns="http://www.w3.org/2000/svg" width="97" height="53" viewBox="0 0 97 53">
    <g fill="#fff" fill-rule="nonzero" opacity=".85">
        <path d="M15.876 37.324c4.104 0 7.428 3.316 7.428 7.41s-3.324 7.411-7.428 7.411-7.429-3.317-7.429-7.41c.03-4.095 3.355-7.411 7.429-7.411zm0 10.996a3.6 3.6 0 0 0 3.594-3.586 3.6 3.6 0 0 0-3.594-3.586 3.6 3.6 0 0 0-3.595 3.586 3.6 3.6 0 0 0 3.595 3.586zM76.593 37.324c4.104 0 7.43 3.316 7.43 7.41s-3.326 7.411-7.43 7.411c-4.103 0-7.428-3.317-7.428-7.41.03-4.095 3.355-7.411 7.428-7.411zm0 10.996a3.6 3.6 0 0 0 3.595-3.586 3.6 3.6 0 0 0-3.595-3.586A3.6 3.6 0 0 0 73 44.734a3.6 3.6 0 0 0 3.594 3.586z"/>
        <path d="M.33 28.15c.03-1.644.389-3.228 1.078-4.722L6.59 12.491c.3-.657.988-1.076 1.707-1.076l17.254.18-.33 28.537a10.42 10.42 0 0 0-9.345-5.797c-5.212 0-9.526 3.825-10.305 8.816L.15 43.09.33 28.15zm8.806 1.583c0-1.434.54-2.779 1.438-3.795.898-1.016 2.097-1.763 3.534-2.032l5.542-.956.09-7.5c0-.837-.66-1.525-1.498-1.525l-8.627-.09c-1.288-.03-2.426.778-2.875 1.973l-3.145 8.636c-.27.568-.15 4.184-.21 5.23l5.751.06zM96.647.06h-68.64v31.496h68.64zM96.465 43.868h-9.477c-.45-5.32-4.913-9.533-10.365-9.533-5.451 0-9.944 4.184-10.364 9.533H28.037V33.05h68.428v10.818z"/>
    </g>
</svg>
