<svg xmlns="http://www.w3.org/2000/svg" width="130" height="49" viewBox="0 0 130 49">
    <g fill="none" opacity=".85">
        <path fill="#fff" d="M14.71 34.807c4.038 0 7.31 3.126 7.31 6.984s-3.272 6.984-7.31 6.984c-4.039 0-7.31-3.126-7.31-6.984s3.271-6.984 7.31-6.984zm0 10.363c1.945 0 3.537-1.52 3.537-3.38 0-1.858-1.592-3.379-3.537-3.379-1.946 0-3.538 1.521-3.538 3.38-.03 1.858 1.563 3.38 3.538 3.38zM105.09 34.807c4.04 0 7.311 3.126 7.311 6.984s-3.272 6.984-7.31 6.984c-4.039 0-7.311-3.126-7.311-6.984s3.272-6.984 7.31-6.984zm0 10.363c1.946 0 3.538-1.52 3.538-3.38 0-1.858-1.592-3.379-3.537-3.379-1.946 0-3.538 1.521-3.538 3.38 0 1.858 1.563 3.38 3.538 3.38z" opacity=".85"/>
        <path fill="#fff" d="M14.297 23.768c1.74-.45 8.166-9.913 8.166-9.913h14.916v30.611H23.317a8.102 8.102 0 0 0 .443-2.675c0-4.76-4.068-8.646-9.05-8.646-4.982 0-9.05 3.887-9.05 8.646 0 .338.03.704.059 1.042H.059V27.907c0-.028 12.47-3.689 14.238-4.14zm20.045.985v-9.236H23.376c-.619.9-1.739 2.478-2.947 4.083-2.33 3.098-3.656 4.478-4.51 5.153h18.423zM38.882.253v37.764h58.073c1.474-2.9 4.569-4.9 8.136-4.9 3.567 0 6.691 2 8.136 4.9h16.626V.253h-90.97zM114.288 39.453h6.485c.325 0 .62.113.826.338l3.802 3.915h-9.433l-1.68-4.253zM95.098 39.256H79.946v4.562H91.5zM55.567 39.256H42.744v4.562h12.823zM78.324 39.06H57.218v6.56h21.106z" opacity=".85"/>
        <g fill="#FFF">
            <path d="M123.22 5.83h-2.329v22.05h2.329zM110.515 5.83h-2.33v22.05h2.33zM97.78 5.83h-2.329v22.05h2.329zM85.075 5.83h-2.329v22.05h2.329zM72.37 5.83h-2.33v22.05h2.33zM59.664 5.83h-2.328v22.05h2.328zM46.93 5.83H44.6v22.05h2.33z"/>
        </g>
        <path fill="#FFF" d="M30.746 26.753h-4.039v1.441h4.039z"/>
    </g>
</svg>
