<svg xmlns="http://www.w3.org/2000/svg" width="127" height="49" viewBox="0 0 127 49">
    <g fill="#fff" fill-rule="nonzero" opacity=".85">
        <path d="M17.769 35.362c3.815 0 6.907 3.021 6.907 6.75 0 3.73-3.092 6.752-6.907 6.752-3.816 0-6.907-3.022-6.907-6.751.028-3.73 3.12-6.751 6.907-6.751zm0 10.017c1.838 0 3.342-1.47 3.342-3.266 0-1.797-1.504-3.267-3.342-3.267s-3.342 1.47-3.342 3.267c0 1.796 1.504 3.266 3.342 3.266zM107.477 35.362c3.815 0 6.907 3.021 6.907 6.75 0 3.73-3.092 6.752-6.907 6.752-3.816 0-6.907-3.022-6.907-6.751.027-3.73 3.119-6.751 6.907-6.751zm0 10.017c1.838 0 3.342-1.47 3.342-3.266 0-1.797-1.504-3.267-3.342-3.267-1.839 0-3.343 1.47-3.343 3.267 0 1.796 1.504 3.266 3.343 3.266z"/>
        <path d="M8.077 23.057l4.595-10.616h24.091v28.882h-9.748c-.417-4.627-4.4-8.302-9.246-8.302s-8.829 3.647-9.247 8.302l-8.049.055-.222-16.225 7.826-2.096zm19.913 1.307V14.89H14.343l-4.122 9.473h17.77zM38.852 30.19V.053h88.12V30.19zM43.552 31.36h83.42v9.528H116.78c-.613-4.492-4.568-7.976-9.302-7.976-4.735 0-8.69 3.484-9.303 7.976H43.468l.084-9.528z"/>
        <path d="M51.663 31.36H38.852v9.528h12.811z"/>
    </g>
</svg>
