<svg xmlns="http://www.w3.org/2000/svg" width="127" height="51" viewBox="0 0 127 51">
    <g fill="#fff" fill-rule="nonzero" opacity=".85">
        <path d="M72.176 33.244H45.742V44.54h26.434zM17.13 31.998c5.058 0 9.156 4.193 9.156 9.369 0 5.175-4.098 9.369-9.156 9.369-5.058 0-9.156-4.194-9.156-9.37.037-5.175 4.098-9.368 9.156-9.368zm0 13.902c2.437 0 4.43-2.04 4.43-4.533 0-2.494-1.993-4.534-4.43-4.534-2.436 0-4.43 2.04-4.43 4.534 0 2.493 1.994 4.533 4.43 4.533zM97.096 31.998c5.058 0 9.156 4.193 9.156 9.369 0 5.175-4.098 9.369-9.156 9.369-5.058 0-9.156-4.194-9.156-9.37.037-5.175 4.135-9.368 9.156-9.368zm0 13.902c2.437 0 4.43-2.04 4.43-4.533 0-2.494-1.993-4.534-4.43-4.534-2.437 0-4.43 2.04-4.43 4.534 0 2.493 1.993 4.533 4.43 4.533z"/>
        <path d="M10.374.189L.258 17.642v22.63h4.615c.554-6.423 5.833-11.523 12.257-11.523 6.424 0 11.703 5.062 12.257 11.522h4.689V.19H10.374zm1.772 3.249h14.325V17.83H3.84l8.306-14.393zM41.57 11.409l.48 3.551h78.674l.48-3.551h5.76V31.77h-21.118c-2.215-2.304-5.317-3.74-8.75-3.74-3.434 0-6.535 1.436-8.75 3.74H35.811V11.41h5.76zM87.608 33.509H74.576v9.029h10.817zM43.6 33.509h-7.789v9.067h7.79zM106.436 33.509h14.546v9.029h-9.635z"/>
    </g>
</svg>
