<svg xmlns="http://www.w3.org/2000/svg" width="132" height="51" viewBox="0 0 132 51">
    <g fill="#fff" fill-rule="nonzero" opacity=".85">
        <path d="M22.975 32.41c4.888 0 8.848 4.103 8.848 9.166 0 5.063-3.96 9.165-8.848 9.165-4.887 0-8.847-4.102-8.847-9.165.035-5.063 3.96-9.165 8.847-9.165zm0 13.6c2.355 0 4.281-1.995 4.281-4.434s-1.926-4.435-4.28-4.435c-2.355 0-4.282 1.996-4.282 4.435 0 2.44 1.927 4.435 4.281 4.435zM50.338 5.84v1.847h74.206l2.283 20.252 4.959 3.88v3.031h-15.947c-2.176-3.696-6.1-6.172-10.596-6.172-4.46 0-8.42 2.476-10.595 6.172H46.806V4.14l3.532 1.7zm64.93 19.106h2.14V13.009h-2.14v11.937zm-10.096 0h2.14V13.009h-2.14v11.937zm-10.096 0h2.14V13.009h-2.14v11.937zm-10.097 0h2.141V13.009h-2.14v11.937zm-10.096 0h2.14V13.009h-2.14v11.937zm-10.096 0h2.14V13.009h-2.14v11.937zm-10.096 0h2.14V13.009h-2.14v11.937z"/>
        <path d="M105.152 32c4.888 0 8.848 4.102 8.848 9.165 0 5.063-3.96 9.165-8.848 9.165-4.887 0-8.847-4.102-8.847-9.165 0-5.063 3.96-9.165 8.847-9.165zm0 13.6c2.355 0 4.282-1.996 4.282-4.435 0-2.439-1.927-4.435-4.282-4.435-2.354 0-4.28 1.996-4.28 4.435-.036 2.44 1.89 4.435 4.28 4.435zM5.458 18.663L18.016 0h25.401v38.804H35.07c-1.213-5.765-6.172-10.052-12.094-10.052s-10.88 4.324-12.094 10.052H.214V20.511l5.244-1.848zm28.256-2.698V2.845H18.765l-8.42 13.12h23.369z"/>
    </g>
</svg>
