<svg xmlns="http://www.w3.org/2000/svg" width="130" height="50" viewBox="0 0 130 50">
    <g fill="#fff" fill-rule="nonzero" opacity=".85">
        <path d="M23.008 33.068c-4.411 0-7.995 3.455-8.271 7.818 0 .177-.025.353-.025.53 0 4.59 3.71 8.322 8.27 8.322 4.562 0 8.272-3.733 8.272-8.322 0-.177 0-.353-.026-.53-.225-4.363-3.834-7.818-8.22-7.818zm4.41 8.323c0 2.446-1.98 4.438-4.41 4.438-2.431 0-4.411-1.992-4.411-4.438 0-2.447 1.98-4.439 4.41-4.439 2.432 0 4.412 1.992 4.412 4.439z"/>
        <path d="M124.488 31.883H51.254v1.564H50.25l-2.882 2.572h-13.81V9.439c0-.857-.701-1.564-1.554-1.564h-.751V.335h-1.605v.681l-2.33.328-3.384.479a25.713 25.713 0 0 0-7.794 2.421l-2.306 1.135-.852.429a1.48 1.48 0 0 0-.677.68l-.677 1.387H7.343c-.701 0-1.328.48-1.503 1.16l-.351 1.387-.126.454h1.279L3.609 22.78H2.256l-.702 2.674v4.287c-.827.428-1.429 1.235-1.529 2.194L0 32.26v8.625h13.885c.276-4.817 4.236-8.625 9.073-8.625 4.837 0 8.822 3.834 9.072 8.625h1.404l.025-.403h52.407v.327c0 4.918 3.96 8.928 8.872 8.928s8.872-3.985 8.872-8.928v-.327h2.532v.327c0 4.918 3.96 8.928 8.872 8.928s8.872-3.985 8.872-8.928v-.327h4.812v-4.464h-.752l-2.857-2.572h4.336v-1.564h-4.937zM5.363 36.271h-2.03v-4.337h.552a1.47 1.47 0 0 1 1.478 1.488v2.85zm7.194 4.006c0-.07.035-.177.035-.248 0 .07-.035.142-.035.248zm.125-.797c0-.036 0-.071.035-.107-.035.036-.035.071-.035.107zm.15-.701c.035-.071.035-.142.07-.213-.035.071-.035.142-.07.213zm.2-.701c0-.036.036-.107.036-.142 0 .035 0 .106-.035.142zm.276-.696c.036-.071.036-.107.07-.178-.034.071-.07.107-.07.178zm.276-.63c.035-.072.035-.107.07-.178 0 .07-.035.106-.07.177zm.376-.702c.035-.036.035-.071.07-.107-.035.036-.07.071-.07.107zm.351-.534c.035-.036.035-.071.07-.107 0-.035.035-.035.035-.07-.035.07-.07.106-.105.177zm.376-.56l.07-.072c-.035 0-.035.036-.07.071zm.426-.495l.105-.106-.105.106zm.376-.408c.035-.071.105-.107.175-.178l-.175.178zm.451-.44l.14-.141-.14.142zm1.003-.816c.07-.036.105-.071.175-.107-.07.036-.105.071-.175.107zm.476-.318a.734.734 0 0 0 .21-.142c-.07.036-.14.107-.21.142zm.526-.338c.07-.035.105-.071.176-.106a.193.193 0 0 1-.176.106zm.652-.348c.035 0 .07-.036.105-.036-.035.036-.07.036-.105.036zm.526-.207c.07-.035.14-.07.246-.106a.377.377 0 0 1-.246.106zm.551-.212a.646.646 0 0 1 .246-.07c-.07.035-.14.07-.246.07zm.652-.187c.035 0 .105-.035.14-.035-.07 0-.105 0-.14.035zm.677-.15c.07 0 .14-.036.21-.036-.07 0-.14 0-.21.035zm.576-.102c.106 0 .176-.035.281-.035-.105 0-.175 0-.28.035zm.627-.075c.07 0 .175 0 .246-.036a.592.592 0 0 1-.246.036zm1.478-12.544c-1.98.1-3.759 1.387-4.436 3.278H7.77l2.48-9.936a1.047 1.047 0 0 1 1.003-.782h12.431v7.44zm71.104 27.236c-2.606 0-4.737-2.144-4.737-4.767 0-2.622 2.13-4.766 4.737-4.766s4.737 2.144 4.737 4.766c0 2.623-2.13 4.767-4.737 4.767zm20.251 0c-2.607 0-4.737-2.144-4.737-4.767 0-2.622 2.13-4.766 4.737-4.766s4.737 2.144 4.737 4.766c0 2.623-2.13 4.767-4.737 4.767z"/>
        <g>
            <path d="M49.636 23.435v1.084c0 .278.05.555.15.807l.527 1.236c-.3 0-.476.202-.476.429v.731c1.002.58 2.13.908 3.283.958l2.406.026v-1.564c0-3.58 2.69-6.924 6.25-6.924 3.559 0 6.163 2.814 6.163 6.395v2.093h31.623V26.36c0-3.48 2.807-6.304 6.265-6.304a6.25 6.25 0 0 1 6.241 5.977l.075 1.437 2.23-.252a4.825 4.825 0 0 0 4.287-4.817v-2.42a.806.806 0 0 0-.351-.682l-.226-.151a1.055 1.055 0 0 1-.476-.807l-.125-1.21a13.241 13.241 0 0 0-3.409-7.642l1.003-1.26h-2.657a90.975 90.975 0 0 0-14.11-1.085H88.132c-2.256 0-4.511.076-6.742.252l-2.556.303a3.42 3.42 0 0 0-.853.176c-4.436 1.715-11.228 6.532-11.228 6.532l-2.105-.05a70.299 70.299 0 0 0-12.557 3.681.942.942 0 0 0-.576.656l-.176.706a2.605 2.605 0 0 0-.927 2.018l-.501.882c-.176.404-.276.757-.276 1.135zm61.079-8.877l.551-.504a1.28 1.28 0 0 1 .852-.328h3.96c.426.782.551 1.538.551 1.538h-5.664c-.35-.025-.501-.479-.25-.706zm-8.497-6.178c1.604.126 3.233.277 4.837.479l2.056.252-.2.858a3.94 3.94 0 0 1-1.455 2.27 3.898 3.898 0 0 1-2.205.831l-1.704.101-1.329-4.791zm-3.86 7.49h2.256c.226 0 .401.176.401.403v.58h-3.057v-.58c0-.227.175-.403.4-.403zm-10.1-1.69l.602-5.952c1.303-.05 2.606-.075 3.935-.075h2.907c1.504 0 3.007.05 4.511.126a12.4 12.4 0 0 1 .176 5.17l-12.13.731zm-6.516 3.001h2.255c.226 0 .402.176.402.403v.58H81.34v-.58c0-.227.175-.403.4-.403zm-10.978-2.497c.15-.454.451-.857.852-1.11l6.341-3.984a3.593 3.593 0 0 1 1.604-.555l3.86-.403c.978-.1 1.93-.177 2.907-.252l-1.303 6.002-13.835.857a.419.419 0 0 1-.426-.555zm-18.972 4.943l.2-.126 3.233-.656c.126-.025.2.076.176.202-.176.504-.527.908-1.028 1.11l-3.333 1.437c-.176-.782.1-1.563.752-1.967z"/>
            <path d="M100.364 26.41c0 3.077 2.48 5.574 5.539 5.574 3.057 0 5.538-2.497 5.538-5.573 0-3.077-2.48-5.573-5.538-5.573-3.083 0-5.54 2.496-5.54 5.573zm1.303 0c0-2.344 1.905-4.236 4.21-4.236 2.331 0 4.211 1.917 4.211 4.237 0 2.345-1.905 4.237-4.21 4.237-2.331 0-4.211-1.892-4.211-4.237zM56.503 26.562c0 3.001 2.406 5.422 5.389 5.422 2.982 0 5.389-2.42 5.389-5.422 0-3-2.407-5.422-5.389-5.422-2.983 0-5.389 2.421-5.389 5.422zm1.279 0c0-2.27 1.854-4.136 4.11-4.136 2.256 0 4.11 1.867 4.11 4.136 0 2.27-1.854 4.136-4.11 4.136-2.256 0-4.11-1.866-4.11-4.136z"/>
        </g>
    </g>
</svg>
